<?xml version="1.0" encoding="UTF-8"?>
<svg version="1.1" xmlns="http://www.w3.org/2000/svg" width="64" height="64">
<path d="M0 0 C8.34468007 4.97590182 13.53387008 11.86345977 16.109375 21.2578125 C17.10789012 32.35758522 16.45884702 41.9922991 9.359375 51.0703125 C3.70168013 57.1280464 -3.34488592 60.84888618 -11.625 61.59375 C-22.24007794 61.83258597 -31.18444828 60.63001931 -39.2890625 53.1015625 C-47.32833275 43.84659773 -48.61982016 35.03008751 -48.06982422 23.20654297 C-47.37894187 15.69343275 -43.42276801 9.23166585 -37.890625 4.2578125 C-27.15195714 -3.81766573 -12.32399863 -5.91386512 0 0 Z " fill="#1977F2" transform="translate(47.890625,2.7421875)"/>
<path d="M0 0 C1.17949219 0.01804687 2.35898437 0.03609375 3.57421875 0.0546875 C4.92966797 0.08949219 4.92966797 0.08949219 6.3125 0.125 C6.3125 2.765 6.3125 5.405 6.3125 8.125 C3.6725 8.455 1.0325 8.785 -1.6875 9.125 C-2.0175 12.425 -2.3475 15.725 -2.6875 19.125 C0.2825 19.125 3.2525 19.125 6.3125 19.125 C5.9825 22.095 5.6525 25.065 5.3125 28.125 C2.6725 28.125 0.0325 28.125 -2.6875 28.125 C-2.6875 35.715 -2.6875 43.305 -2.6875 51.125 C-5.9875 51.125 -9.2875 51.125 -12.6875 51.125 C-12.6875 43.535 -12.6875 35.945 -12.6875 28.125 C-15.3275 28.125 -17.9675 28.125 -20.6875 28.125 C-20.6875 25.155 -20.6875 22.185 -20.6875 19.125 C-18.0475 19.125 -15.4075 19.125 -12.6875 19.125 C-12.72230469 18.31675781 -12.75710937 17.50851563 -12.79296875 16.67578125 C-12.82003906 15.60714844 -12.84710937 14.53851563 -12.875 13.4375 C-12.90980469 12.38175781 -12.94460937 11.32601563 -12.98046875 10.23828125 C-12.64813055 6.70663401 -11.80428496 4.94244571 -9.6875 2.125 C-6.05554504 -0.29630331 -4.30400652 -0.08522785 0 0 Z " fill="#FEFEFE" transform="translate(39.6875,12.875)"/>
</svg>
