<?xml version="1.0" encoding="UTF-8"?>
<svg version="1.1" xmlns="http://www.w3.org/2000/svg" width="128" height="128">
<path d="M0 0 C0.64791 -0.0049649 1.29582001 -0.00992981 1.96336365 -0.01504517 C4.09578538 -0.02958598 6.22813264 -0.03645641 8.3605957 -0.04199219 C9.46031676 -0.04623325 9.46031676 -0.04623325 10.58225441 -0.05056 C14.46467063 -0.06552259 18.34705 -0.07476961 22.22949219 -0.07910156 C26.21592093 -0.08457144 30.20200559 -0.1085762 34.18832684 -0.13707352 C37.27436772 -0.15581292 40.36032773 -0.16091154 43.44642067 -0.16243744 C44.91465949 -0.16544078 46.38289768 -0.17338972 47.85107994 -0.18662262 C58.61094615 -0.2766547 68.66096078 0.08957314 77.34887695 7.16113281 C84.31426732 14.45049483 86.45247068 21.98015854 86.51000977 31.81225586 C86.51745712 32.78412086 86.51745712 32.78412086 86.52505493 33.77561951 C86.53959575 35.90804124 86.54646617 38.0403885 86.55200195 40.17285156 C86.55624302 41.27257262 86.55624302 41.27257262 86.56056976 42.39451027 C86.57553236 46.27692649 86.58477937 50.15930586 86.58911133 54.04174805 C86.59458121 58.02817679 86.61858596 62.01426145 86.64708328 66.0005827 C86.66582268 69.08662358 86.6709213 72.17258358 86.6724472 75.25867653 C86.67545054 76.72691535 86.68339948 78.19515354 86.69663239 79.6633358 C86.78566557 90.30382344 86.50704699 100.64871439 79.34887695 109.16113281 C69.67135031 118.29977166 58.53404033 118.62107313 45.84887695 118.55957031 C44.36254738 118.56159659 42.87621879 118.56451262 41.38989258 118.56826782 C38.29018595 118.57266517 35.19074047 118.56634452 32.09106445 118.55224609 C28.14395349 118.53515551 24.19745478 118.54501073 20.25036621 118.56296349 C17.1857452 118.57387193 14.12126622 118.57032289 11.05664062 118.56258011 C9.60237554 118.56059754 8.148097 118.56296798 6.69384766 118.57001877 C-3.99651855 118.61049199 -14.02549383 118.18199381 -22.65112305 111.16113281 C-29.61651342 103.8717708 -31.75471677 96.34210708 -31.81225586 86.51000977 C-31.81722076 85.86209976 -31.82218567 85.21418976 -31.82730103 84.54664612 C-31.84184184 82.41422439 -31.84871227 80.28187712 -31.85424805 78.14941406 C-31.85707542 77.41626669 -31.8599028 76.68311932 -31.86281586 75.92775536 C-31.87777845 72.04533913 -31.88702547 68.16295977 -31.89135742 64.28051758 C-31.8968273 60.29408883 -31.92083206 56.30800418 -31.94932938 52.32168293 C-31.96806878 49.23564205 -31.9731674 46.14968204 -31.9746933 43.0635891 C-31.97769664 41.59535028 -31.98564558 40.12711208 -31.99887848 38.65892982 C-32.08891055 27.89906362 -31.72268272 17.84904898 -24.65112305 9.16113281 C-17.36176103 2.19574244 -9.83209732 0.05753909 0 0 Z " fill="#D34772" transform="translate(36.651123046875,4.8388671875)"/>
<path d="M0 0 C0.64791 -0.0049649 1.29582001 -0.00992981 1.96336365 -0.01504517 C4.09578538 -0.02958598 6.22813264 -0.03645641 8.3605957 -0.04199219 C9.46031676 -0.04623325 9.46031676 -0.04623325 10.58225441 -0.05056 C14.46467063 -0.06552259 18.34705 -0.07476961 22.22949219 -0.07910156 C26.21592093 -0.08457144 30.20200559 -0.1085762 34.18832684 -0.13707352 C37.27436772 -0.15581292 40.36032773 -0.16091154 43.44642067 -0.16243744 C44.91465949 -0.16544078 46.38289768 -0.17338972 47.85107994 -0.18662262 C58.61094615 -0.2766547 68.66096078 0.08957314 77.34887695 7.16113281 C84.31426732 14.45049483 86.45247068 21.98015854 86.51000977 31.81225586 C86.51745712 32.78412086 86.51745712 32.78412086 86.52505493 33.77561951 C86.53959575 35.90804124 86.54646617 38.0403885 86.55200195 40.17285156 C86.55624302 41.27257262 86.55624302 41.27257262 86.56056976 42.39451027 C86.57553236 46.27692649 86.58477937 50.15930586 86.58911133 54.04174805 C86.59458121 58.02817679 86.61858596 62.01426145 86.64708328 66.0005827 C86.66582268 69.08662358 86.6709213 72.17258358 86.6724472 75.25867653 C86.67545054 76.72691535 86.68339948 78.19515354 86.69663239 79.6633358 C86.78566557 90.30382344 86.50704699 100.64871439 79.34887695 109.16113281 C69.67135031 118.29977166 58.53404033 118.62107313 45.84887695 118.55957031 C44.36254738 118.56159659 42.87621879 118.56451262 41.38989258 118.56826782 C38.29018595 118.57266517 35.19074047 118.56634452 32.09106445 118.55224609 C28.14395349 118.53515551 24.19745478 118.54501073 20.25036621 118.56296349 C17.1857452 118.57387193 14.12126622 118.57032289 11.05664062 118.56258011 C9.60237554 118.56059754 8.148097 118.56296798 6.69384766 118.57001877 C-3.99651855 118.61049199 -14.02549383 118.18199381 -22.65112305 111.16113281 C-29.61651342 103.8717708 -31.75471677 96.34210708 -31.81225586 86.51000977 C-31.81722076 85.86209976 -31.82218567 85.21418976 -31.82730103 84.54664612 C-31.84184184 82.41422439 -31.84871227 80.28187712 -31.85424805 78.14941406 C-31.85707542 77.41626669 -31.8599028 76.68311932 -31.86281586 75.92775536 C-31.87777845 72.04533913 -31.88702547 68.16295977 -31.89135742 64.28051758 C-31.8968273 60.29408883 -31.92083206 56.30800418 -31.94932938 52.32168293 C-31.96806878 49.23564205 -31.9731674 46.14968204 -31.9746933 43.0635891 C-31.97769664 41.59535028 -31.98564558 40.12711208 -31.99887848 38.65892982 C-32.08891055 27.89906362 -31.72268272 17.84904898 -24.65112305 9.16113281 C-17.36176103 2.19574244 -9.83209732 0.05753909 0 0 Z M-12.27612305 26.90332031 C-16.04961984 33.09957358 -15.98289829 39.73167502 -16.0222168 46.77441406 C-16.03124527 47.78400681 -16.04027374 48.79359955 -16.04957581 49.83378601 C-16.06403325 51.96264705 -16.07295379 54.09155208 -16.07666016 56.22045898 C-16.08854868 59.45340922 -16.13777386 62.68444437 -16.18823242 65.91699219 C-16.19769917 67.99445692 -16.204933 70.07193327 -16.2097168 72.14941406 C-16.22924911 73.10390945 -16.24878143 74.05840485 -16.26890564 75.04182434 C-16.21801562 82.7252892 -14.13973234 89.28140903 -8.92478943 95.08100891 C-2.03426859 101.67377196 5.93010632 102.62795811 15.05981445 102.62988281 C16.57208115 102.6413031 16.57208115 102.6413031 18.11489868 102.6529541 C20.23778825 102.66371112 22.36073056 102.66662621 24.48364258 102.66210938 C27.7078599 102.66113764 30.92969025 102.70279984 34.15356445 102.74707031 C36.22647621 102.75227878 38.29939615 102.75496548 40.37231445 102.75488281 C41.32367279 102.77127808 42.27503113 102.78767334 43.25521851 102.80456543 C50.91127992 102.72665316 57.52581306 100.65660969 63.26889038 95.40563965 C69.86584381 88.36517459 70.80949622 81.34353884 70.7824707 72.04003906 C70.78771255 70.98131088 70.79295441 69.9225827 70.7983551 68.83177185 C70.80475749 66.60034052 70.80346152 64.36887535 70.79492188 62.13745117 C70.78641248 58.73782817 70.81519917 55.33988699 70.84692383 51.94042969 C70.84853614 49.76529998 70.84795774 47.59016732 70.8449707 45.41503906 C70.85620468 44.40647354 70.86743866 43.39790802 70.87901306 42.35877991 C70.8066882 34.97422937 69.3068019 29.6069629 64.4543457 23.95410156 C63.82141602 23.42429687 63.18848633 22.89449219 62.53637695 22.34863281 C61.59858398 21.53458984 61.59858398 21.53458984 60.6418457 20.70410156 C53.98715058 16.22606992 48.37076245 15.69399299 40.5168457 15.69238281 C39.48505692 15.68476929 38.45326813 15.67715576 37.39021301 15.66931152 C35.21426808 15.6585414 33.03827159 15.6556448 30.86230469 15.66015625 C27.55680783 15.66112681 24.2536476 15.61950372 20.94848633 15.57519531 C18.82544425 15.56998616 16.70239417 15.56730015 14.5793457 15.56738281 C13.60297653 15.55098755 12.62660736 15.53459229 11.62065125 15.5177002 C1.56302988 15.6175143 -5.70518946 19.35306489 -12.27612305 26.90332031 Z " fill="#C2617A" transform="translate(36.651123046875,4.8388671875)"/>
<path d="M0 0 C1.54343834 -0.00929787 1.54343834 -0.00929787 3.11805725 -0.01878357 C5.28206442 -0.02584942 7.44612631 -0.02276471 9.61010742 -0.01000977 C12.89800273 0.003855 16.18304741 -0.03026514 19.47070312 -0.06835938 C21.5846361 -0.06931078 23.6985726 -0.0674506 25.8125 -0.0625 C26.78259506 -0.07575821 27.75269012 -0.08901642 28.75218201 -0.10267639 C36.79818422 0.00561652 43.23525233 2.40398755 49.41015625 7.62890625 C50.18359375 8.58796875 50.18359375 8.58796875 50.97265625 9.56640625 C51.50890625 10.20578125 52.04515625 10.84515625 52.59765625 11.50390625 C55.16738418 15.35849814 56.21986649 18.86069877 56.27905273 23.47338867 C56.29504013 24.42175095 56.31102753 25.37011322 56.32749939 26.34721375 C56.33286209 27.36185196 56.33822479 28.37649017 56.34375 29.421875 C56.35277847 30.47868973 56.36180695 31.53550446 56.37110901 32.62434387 C56.38560008 34.85931574 56.3944954 37.09432992 56.39819336 39.3293457 C56.41005479 42.72486231 56.45922449 46.11854037 56.50976562 49.51367188 C56.51923474 51.69139744 56.52646743 53.8691341 56.53125 56.046875 C56.55078232 57.05139206 56.57031464 58.05590912 56.59043884 59.09086609 C56.54103399 66.92806413 54.6070862 73.59606863 49.21702576 79.48429871 C42.34539867 85.93259622 35.4554769 87.02779904 26.359375 87 C24.84498589 87.00786278 24.84498589 87.00786278 23.30000305 87.0158844 C21.17112138 87.02228602 19.04220425 87.02099181 16.91333008 87.01245117 C13.68050079 87.00395969 10.44945115 87.03270011 7.21679688 87.06445312 C5.13932344 87.06606598 3.06184691 87.06548599 0.984375 87.0625 C0.02987961 87.07373398 -0.92461578 87.08496796 -1.90803528 87.09654236 C-9.47079748 87.01922776 -16.39053425 85.43445927 -22.4296875 80.671875 C-22.93628906 80.03894531 -23.44289063 79.40601562 -23.96484375 78.75390625 C-24.48949219 78.12871094 -25.01414062 77.50351563 -25.5546875 76.859375 C-29.88333193 70.11954932 -30.46535317 64.71809775 -30.390625 56.84765625 C-30.3911235 55.83094849 -30.39162201 54.81424072 -30.39213562 53.76672363 C-30.38980362 51.62522418 -30.38012692 49.48372153 -30.36352539 47.34228516 C-30.33991959 44.07689732 -30.34297328 40.81232663 -30.34960938 37.546875 C-30.3440322 35.45963058 -30.33692208 33.37238958 -30.328125 31.28515625 C-30.32903641 30.315177 -30.32994781 29.34519775 -30.33088684 28.3458252 C-30.2528252 20.82914439 -29.65464307 14.71874104 -24.46484375 8.87890625 C-23.84480469 8.15316406 -23.22476562 7.42742188 -22.5859375 6.6796875 C-15.72731668 1.01478084 -8.67213418 -0.04424627 0 0 Z M-19.33984375 15.19140625 C-21.64396227 18.43423973 -22.15552642 20.09221114 -22.18847656 24.01269531 C-22.19808411 24.93415344 -22.20769165 25.85561157 -22.21759033 26.80499268 C-22.22184021 27.80391541 -22.22609009 28.80283813 -22.23046875 29.83203125 C-22.23616882 30.85818542 -22.2418689 31.8843396 -22.2477417 32.94158936 C-22.25720078 35.11713629 -22.26372927 37.29269762 -22.26757812 39.46826172 C-22.27726379 42.78899362 -22.3082708 46.10910148 -22.33984375 49.4296875 C-22.34637574 51.54296507 -22.35162544 53.65624708 -22.35546875 55.76953125 C-22.36781555 56.76035706 -22.38016235 57.75118286 -22.3928833 58.77203369 C-22.37326619 64.87769425 -21.85190522 69.54060376 -17.4921875 74.2109375 C-13.55459589 77.22203697 -11.49859712 78.68620903 -6.58105469 78.72753906 C-5.65959656 78.73714661 -4.73813843 78.74675415 -3.78875732 78.75665283 C-2.78983459 78.76090271 -1.79091187 78.76515259 -0.76171875 78.76953125 C0.77751251 78.77808136 0.77751251 78.77808136 2.34783936 78.7868042 C4.52338629 78.79626328 6.69894762 78.80279177 8.87451172 78.80664062 C12.19524362 78.81632629 15.51535148 78.8473333 18.8359375 78.87890625 C20.94921507 78.88543824 23.06249708 78.89068794 25.17578125 78.89453125 C26.16660706 78.90687805 27.15743286 78.91922485 28.17828369 78.9319458 C34.28394425 78.91232869 38.94685376 78.39096772 43.6171875 74.03125 C46.65857265 70.05405403 48.09078399 67.99326828 48.1496582 63.02832031 C48.16249344 62.08684143 48.17532867 61.14536255 48.18855286 60.175354 C48.19593979 59.1545575 48.20332672 58.13376099 48.2109375 57.08203125 C48.22304512 55.50950592 48.22304512 55.50950592 48.23539734 53.9052124 C48.24924559 51.68259336 48.25996442 49.45995298 48.26782227 47.23730469 C48.28501649 43.84398848 48.3288947 40.45165109 48.37304688 37.05859375 C48.3831753 34.89974675 48.39169093 32.74089147 48.3984375 30.58203125 C48.42469963 29.06298187 48.42469963 29.06298187 48.45149231 27.51324463 C48.43310795 21.51772752 47.94626324 18.14066947 43.97265625 13.56640625 C39.86859456 9.86274082 36.90753554 8.45616746 31.4128418 8.3894043 C30.0307679 8.37015144 30.0307679 8.37015144 28.62077332 8.35050964 C27.62701187 8.34312271 26.63325043 8.33573578 25.609375 8.328125 C24.58463577 8.32005325 23.55989655 8.31198151 22.50410461 8.30366516 C20.3345407 8.28983183 18.16495509 8.27910632 15.99536133 8.27124023 C12.68333566 8.25402672 9.37230806 8.21013301 6.06054688 8.16601562 C3.95183025 8.1558885 1.84310515 8.14737246 -0.265625 8.140625 C-1.25331375 8.12311691 -2.2410025 8.10560883 -3.25862122 8.08757019 C-10.49256636 8.11030602 -14.43225291 9.62062745 -19.33984375 15.19140625 Z " fill="#FDF8F9" transform="translate(51.02734375,20.43359375)"/>
<path d="M0 0 C4.60163535 4.15822295 7.54258958 8.55256989 8.37109375 14.796875 C8.53555373 22.11050715 7.52690436 27.1548213 3 33 C0.5625 35.375 0.5625 35.375 -2 37 C-2.845625 37.5775 -3.69125 38.155 -4.5625 38.75 C-10.92606545 41.0640238 -18.11165526 41.23191534 -24.375 38.4375 C-29.38126447 35.48588991 -32.79458296 31.41083409 -35.375 26.25 C-36.75301387 19.08432788 -37.08962819 12.25140964 -33.33203125 5.78515625 C-25.18393895 -5.13472112 -11.44072467 -7.48131517 0 0 Z " fill="#FDF8FA" transform="translate(78,46)"/>
<path d="M0 0 C4.04457622 2.02228811 6.61677114 4.18411789 9 8 C9.87570205 13.22265547 9.61426036 17.7259785 7.3125 22.5 C3.43760619 26.68907439 0.76222687 28.17259515 -4.9375 28.4375 C-9.67652795 28.28235325 -12.40843289 27.24117032 -16 24 C-19.58278243 20.05893933 -19.55661762 15.7735672 -19.42578125 10.6640625 C-18.7534636 6.45745114 -17.12744755 4.8365222 -14 2 C-9.53353622 -0.97764252 -5.23751281 -0.61441495 0 0 Z " fill="#DE3978" transform="translate(69,50)"/>
<path d="M0 0 C3 0.25 3 0.25 5 2.25 C5.36487512 5.09602594 5.40199375 6.6364306 3.8125 9.0625 C1.3864306 10.65199375 -0.15397406 10.61487512 -3 10.25 C-5 8.25 -5 8.25 -5.25 5.25 C-4.90584825 1.120179 -4.129821 0.34415175 0 0 Z " fill="#FCF7FA" transform="translate(87,35.75)"/>
</svg>
