<?xml version="1.0" encoding="UTF-8"?>
<svg version="1.1" xmlns="http://www.w3.org/2000/svg" width="64" height="64">
<path d="M0 0 C21.12 0 42.24 0 64 0 C64 21.12 64 42.24 64 64 C42.88 64 21.76 64 0 64 C0 42.88 0 21.76 0 0 Z " fill="#0176B3" transform="translate(0,0)"/>
<path d="M0 0 C2.64 0 5.28 0 8 0 C8.33 0.66 8.66 1.32 9 2 C9.66 1.34 10.32 0.68 11 0 C14.05610339 -0.57039258 16.94031349 -0.5337277 20 0 C22.75569447 2.18159145 24.43588747 3.87177494 26 7 C26.08372659 8.52148326 26.10730027 10.04655778 26.09765625 11.5703125 C26.09443359 12.46621094 26.09121094 13.36210938 26.08789062 14.28515625 C26.07951172 15.22230469 26.07113281 16.15945312 26.0625 17.125 C26.05798828 18.06988281 26.05347656 19.01476562 26.04882812 19.98828125 C26.03702375 22.3255477 26.01908799 24.66278169 26 27 C23.03 27 20.06 27 17 27 C16.67 21.06 16.34 15.12 16 9 C14.35 8.67 12.7 8.34 11 8 C7.97906785 11.02093215 8.53323166 14.56372072 8.375 18.625 C8.31699219 19.82769531 8.31699219 19.82769531 8.2578125 21.0546875 C8.16346069 23.03607556 8.08063785 25.01800645 8 27 C5.36 27 2.72 27 0 27 C0 18.09 0 9.18 0 0 Z " fill="#F8FBFD" transform="translate(26,25)"/>
<path d="M0 0 C3.5 0.125 3.5 0.125 4.5 1.125 C4.58748207 3.05167507 4.60697334 4.98151861 4.59765625 6.91015625 C4.59443359 8.07998047 4.59121094 9.24980469 4.58789062 10.45507812 C4.57951172 11.68677734 4.57113281 12.91847656 4.5625 14.1875 C4.55798828 15.42306641 4.55347656 16.65863281 4.54882812 17.93164062 C4.53699608 20.99614117 4.52051173 24.06054721 4.5 27.125 C-1.65234375 27.22265625 -1.65234375 27.22265625 -3.5 27.125 C-5.24545605 25.37954395 -4.6302316 22.96375783 -4.6328125 20.59375 C-4.63410156 19.47355469 -4.63539062 18.35335937 -4.63671875 17.19921875 C-4.63285156 16.01972656 -4.62898437 14.84023438 -4.625 13.625 C-4.62886719 12.44550781 -4.63273438 11.26601563 -4.63671875 10.05078125 C-4.63542969 8.93058594 -4.63414063 7.81039062 -4.6328125 6.65625 C-4.63168457 5.62048828 -4.63055664 4.58472656 -4.62939453 3.51757812 C-4.42277731 -0.30289123 -3.97275364 0.14188406 0 0 Z " fill="#EDF5FA" transform="translate(17.5,24.875)"/>
<path d="M0 0 C1.8125 1.1875 1.8125 1.1875 3 3 C3.4334014 5.88934264 3.42525784 7.35092224 1.8125 9.8125 C-0.64907776 11.42525784 -2.11065736 11.4334014 -5 11 C-6.8125 9.8125 -6.8125 9.8125 -8 8 C-8.4334014 5.11065736 -8.42525784 3.64907776 -6.8125 1.1875 C-4.35092224 -0.42525784 -2.88934264 -0.4334014 0 0 Z " fill="#EEF6FA" transform="translate(20,12)"/>
</svg>
