<?xml version="1.0" encoding="UTF-8"?>
<svg version="1.1" xmlns="http://www.w3.org/2000/svg" width="128" height="128">
<path d="M0 0 C8.60465662 4.1233888 15.72740241 11.343546 19.4375 20.125 C22.84665118 29.95674849 22.84665118 29.95674849 20.828125 34.828125 C18.50669529 38.85590475 15.56583592 42.12717387 12.40820312 45.5 C10.1722272 48.02905671 9.04574744 49.71197411 8.51171875 53.07421875 C9.39161832 58.34657699 12.75086261 61.89189525 16 66 C16.59039062 66.76828125 17.18078125 67.5365625 17.7890625 68.328125 C23.16611507 74.87211238 31.45378315 83.06140946 40.046875 84.515625 C43.91675025 83.8399325 45.69582151 82.2742534 48.625 79.6875 C49.54539062 78.88699219 50.46578125 78.08648437 51.4140625 77.26171875 C52.93223227 75.93389353 54.44866376 74.60406764 55.9609375 73.26953125 C59.58589017 71.01261627 62.78396224 70.76489937 66.9296875 71.56640625 C77.90627343 75.27864685 85.74651522 81.06826807 92.1953125 90.8046875 C93.38512033 94.05066808 93.33074098 96.56396867 93 100 C91.4609375 103.24609375 91.4609375 103.24609375 89.375 106.4375 C88.83238525 107.27619629 88.83238525 107.27619629 88.27880859 108.13183594 C80.2811244 120.3594378 80.2811244 120.3594378 77 122 C55.69037364 124.02948822 32.1970611 111.92386101 16 99 C11.85211454 95.48488582 7.91515115 91.77036005 4 88 C3.35546875 87.41863281 2.7109375 86.83726563 2.046875 86.23828125 C-12.2913078 72.93861169 -21.76925809 53.57133156 -27 35 C-27.24492187 34.14792969 -27.48984375 33.29585937 -27.7421875 32.41796875 C-29.1127731 27.05766479 -29.90172387 21.49760682 -29 16 C-25.40253863 10.84363871 -19.21268132 7.45329909 -14 4 C-13.35417969 3.55914062 -12.70835938 3.11828125 -12.04296875 2.6640625 C-7.86832383 0.00661359 -4.88537087 -0.84230532 0 0 Z " fill="#4DA5FF" transform="translate(32,3)"/>
</svg>
