<?xml version="1.0" encoding="UTF-8"?>
<svg version="1.1" xmlns="http://www.w3.org/2000/svg" width="64" height="64">
<path d="M0 0 C8.34468007 4.97590182 13.53387008 11.86345977 16.109375 21.2578125 C17.10789012 32.35758522 16.45884702 41.9922991 9.359375 51.0703125 C3.70168013 57.1280464 -3.34488592 60.84888618 -11.625 61.59375 C-22.35447774 61.83515993 -31.19802606 60.58332943 -39.359375 52.9609375 C-46.75303791 44.73737365 -48.47252567 36.02335615 -48.203125 25.24609375 C-47.72879865 16.86039919 -44.11592977 9.8548755 -37.890625 4.2578125 C-27.15195714 -3.81766573 -12.32399863 -5.91386512 0 0 Z " fill="#049BE5" transform="translate(47.890625,2.7421875)"/>
<path d="M0 0 C-1.2855982 9.10506018 -2.98294223 18.03081643 -5 27 C-6.734375 27.65234375 -6.734375 27.65234375 -9 28 C-11.140625 27.00390625 -11.140625 27.00390625 -13.25 25.5625 C-13.95640625 25.08941406 -14.6628125 24.61632812 -15.390625 24.12890625 C-15.92171875 23.75636719 -16.4528125 23.38382813 -17 23 C-18.65 24.32 -20.3 25.64 -22 27 C-22.96659278 21.46405953 -22.96659278 21.46405953 -22 18 C-19.3995363 15.27143464 -16.65655771 13.14775091 -13.6015625 10.9453125 C-10.81905852 9.09061665 -10.81905852 9.09061665 -9 6 C-10.07378906 6.73347656 -11.14757812 7.46695312 -12.25390625 8.22265625 C-13.68943152 9.17029058 -15.12566745 10.11684898 -16.5625 11.0625 C-17.26697266 11.54783203 -17.97144531 12.03316406 -18.69726562 12.53320312 C-22.39012524 14.93271098 -24.33133387 16.00068023 -28.83984375 15.99609375 C-31.97460356 15.00800506 -32.88450209 14.33517661 -35 12 C-28.11725326 8.86842606 -21.15246449 5.97781678 -14.125 3.1875 C-13.09375 2.76791016 -12.0625 2.34832031 -11 1.91601562 C-10.01257813 1.52478516 -9.02515625 1.13355469 -8.0078125 0.73046875 C-7.11723145 0.37364014 -6.22665039 0.01681152 -5.30908203 -0.35083008 C-3 -1 -3 -1 0 0 Z " fill="#F2F9FD" transform="translate(48,20)"/>
</svg>
