<?xml version="1.0" encoding="UTF-8"?>
<svg version="1.1" xmlns="http://www.w3.org/2000/svg" width="64" height="64">
<path d="M0 0 C8.34296853 4.97488123 13.53708251 11.86384564 16.109375 21.2578125 C16.89814221 30.10851435 17.06941889 38.555881 12.109375 46.2578125 C11.67367187 46.96421875 11.23796875 47.670625 10.7890625 48.3984375 C6.10935787 55.30291974 0.10880944 59.05772679 -7.890625 61.2578125 C-16.74132685 62.04657971 -25.1886935 62.21785639 -32.890625 57.2578125 C-33.59703125 56.82210937 -34.3034375 56.38640625 -35.03125 55.9375 C-41.93709584 51.25687115 -45.68778524 45.25759899 -47.890625 37.2578125 C-48.88914012 26.15803978 -48.24009702 16.5233259 -41.140625 7.4453125 C-30.84272373 -3.5807232 -13.59449082 -6.52353083 0 0 Z M-31.890625 15.2578125 C-35.77350808 20.65070567 -37.1624881 25.58671037 -36.890625 32.2578125 C-35.4822263 38.88421293 -32.26528981 43.54805383 -26.765625 47.5078125 C-21.74880626 50.13976237 -16.20345933 50.96193408 -10.6484375 49.78125 C-4.39245535 47.63296934 0.17937857 44.28815263 3.31640625 38.30859375 C5.40185343 32.91519588 5.80705568 27.43512437 3.921875 21.9453125 C1.19653303 15.87134408 -2.58620233 11.6955226 -8.890625 9.2578125 C-17.72958147 7.13819325 -25.3593143 8.7265018 -31.890625 15.2578125 Z " fill="#000000" transform="translate(47.890625,2.7421875)"/>
<path d="M0 0 C4.62 0 9.24 0 14 0 C14 3.3 14 6.6 14 10 C9.38 10 4.76 10 0 10 C0 6.7 0 3.4 0 0 Z " fill="#000000" transform="translate(25,27)"/>
<path d="M0 0 C3.96 0 7.92 0 12 0 C11.56179109 4.55737263 11.14958831 7.57653445 8 11 C5.6875 10.875 5.6875 10.875 3 10 C0.63898051 6.33634907 0 4.40218532 0 0 Z " fill="#000000" transform="translate(26,39)"/>
<path d="M0 0 C2.3125 0.125 2.3125 0.125 5 1 C7.36101949 4.66365093 8 6.59781468 8 11 C4.04 11 0.08 11 -4 11 C-3.56179109 6.44262737 -3.14958831 3.42346555 0 0 Z " fill="#000000" transform="translate(30,14)"/>
<path d="M0 0 C2.97 0 5.94 0 9 0 C9 3.3 9 6.6 9 10 C6.03 10 3.06 10 0 10 C0 6.7 0 3.4 0 0 Z " fill="#000000" transform="translate(41,27)"/>
<path d="M0 0 C2.97 0 5.94 0 9 0 C9 3.3 9 6.6 9 10 C6.03 10 3.06 10 0 10 C0 6.7 0 3.4 0 0 Z " fill="#000000" transform="translate(14,27)"/>
<path d="M0 0 C2.97 0 5.94 0 9 0 C7.5661989 5.01830384 5.2101103 7.13712499 1 10 C-0.32 9.67 -1.64 9.34 -3 9 C-2.01 6.03 -1.02 3.06 0 0 Z " fill="#000000" transform="translate(40,39)"/>
<path d="M0 0 C2.97 0 5.94 0 9 0 C9.99 3.3 10.98 6.6 12 10 C7.02773904 9.00554781 5.49955977 8.40497708 2 5 C0.6875 2.25 0.6875 2.25 0 0 Z " fill="#000000" transform="translate(15,39)"/>
<path d="M0 0 C4.97226096 0.99445219 6.50044023 1.59502292 10 5 C11.3125 7.75 11.3125 7.75 12 10 C9.03 10 6.06 10 3 10 C2.01 6.7 1.02 3.4 0 0 Z " fill="#000000" transform="translate(37,15)"/>
<path d="M0 0 C1.32 0.33 2.64 0.66 4 1 C3.01 3.97 2.02 6.94 1 10 C-1.97 10 -4.94 10 -8 10 C-6.5661989 4.98169616 -4.2101103 2.86287501 0 0 Z " fill="#000000" transform="translate(23,15)"/>
</svg>
